<?xml version="1.0" encoding="utf-8"?>
<svg xmlns="http://www.w3.org/2000/svg" fill="none" height="50" viewBox="0 0 46 50" width="46">
    <path d="M5.14 29.524H26.9v1.143H5.14v-1.143zM29.783 29.524h1.727v1.143h-1.727v-1.143zM34.659 29.524h5.398v1.143H34.66v-1.143zM11.405 32.951h1.142v10.736h-1.142V32.951zM18.464 32.951h1.143v10.736h-1.143V32.951zM25.524 32.951h1.142v10.736h-1.142V32.951zM32.584 32.951h1.142v10.736h-1.142V32.951zM35.8 25.927H34.66V1.184a.041.041 0 0 0-.042-.042h-24.13a.041.041 0 0 0-.043.042v24.743H9.303V1.184C9.302.53 9.833 0 10.486 0h24.131c.653 0 1.184.531 1.184 1.184v24.744z" fill="#EB5976"/>
    <path d="M21.98.571h1.143v25.356H21.98V.571z" fill="#EB5976"/>
    <path d="M9.874 9.684H35.23v1.143H9.874V9.684zM5.14 47.114H2.284a.571.571 0 0 1-.57-.57V27.24c0-.315.255-.57.57-.57H5.14c.315 0 .57.255.57.57v19.303a.571.571 0 0 1-.57.571zm-2.285-1.142H4.57v-18.16H2.855v18.16zM42.913 47.115h-2.855a.571.571 0 0 1-.572-.571V27.259c0-.316.256-.571.572-.571h2.855c.315 0 .571.256.571.57v19.286a.571.571 0 0 1-.571.57zm-2.284-1.142h1.713V27.83h-1.713v18.143z" fill="#EB5976"/>
    <path d="M.571 49.983A.57.57 0 0 1 0 49.41v-2.868c0-.315.256-.57.571-.57h44.055c.315 0 .571.255.571.57V49.4a.571.571 0 0 1-.57.57L.57 49.984zm.571-2.868v1.725l42.913-.012v-1.713H1.142z" fill="#EB5976"/>
    <path d="M42.913 50h-2.855a.571.571 0 0 1-.572-.571v-.03c0-.316.256-.572.572-.572h2.855c.315 0 .571.256.571.572v.03a.571.571 0 0 1-.571.571z" fill="#EB5976"/>
</svg>