<?xml version="1.0" encoding="utf-8"?>
<svg xmlns="http://www.w3.org/2000/svg" fill="none" height="50" viewBox="0 0 50 50" width="50">
    <path clip-rule="evenodd" d="M37.097 50c.34 0 .615-.273.615-.61v-4.367c1.864-.1 3.595-.65 5.038-1.609 1.605-1.067 2.744-2.562 3.298-4.324l1.382-4.4a.616.616 0 0 0-1.175-.362l-1.382 4.4c-.971 3.095-4.023 5.095-7.776 5.095H13.75c-3.753 0-6.805-2-7.777-5.095l-1.381-4.401a.617.617 0 0 0-.77-.401.608.608 0 0 0-.405.763l1.381 4.401c.553 1.762 1.694 3.257 3.298 4.324 1.443.96 3.175 1.51 5.039 1.61v4.367c0 .336.275.609.615.609.339 0 .615-.273.615-.61v-4.349h22.116v4.35c0 .336.276.609.615.609z" fill="#EB5976" fill-rule="evenodd"/>
    <path clip-rule="evenodd" d="M8.32 31.108V1.216h16.93v32.378c0 .42-.205.812-.55 1.051a3.292 3.292 0 0 1-3.733 0 2.024 2.024 0 0 0-1.158-.36c-.405 0-.81.12-1.157.36a3.292 3.292 0 0 1-3.734 0 2.038 2.038 0 0 0-2.315 0 3.292 3.292 0 0 1-3.734 0 1.28 1.28 0 0 1-.55-1.05v-2.487zm18.145-3.304H47.44a1.348 1.348 0 0 1 0 2.694H26.465v-2.694zm13.287-12.909a.43.43 0 0 1-.43.436h-8.454a.426.426 0 0 1-.429-.445c0-.87 1.164-4.113 4.656-4.113s4.657 3.243 4.657 4.122zM7.104 30.498H2.561a1.347 1.347 0 0 1 0-2.694h4.543v2.694zM.608 1.217h6.497v25.37H2.56c-.684 0-1.327.268-1.81.752a2.565 2.565 0 0 0 1.811 4.376h4.542v1.88c0 .818.401 1.584 1.073 2.05a4.51 4.51 0 0 0 5.12 0 .82.82 0 0 1 .929 0c.766.53 1.662.796 2.56.795.896 0 1.793-.265 2.559-.796a.82.82 0 0 1 .93 0 4.51 4.51 0 0 0 5.118 0 2.495 2.495 0 0 0 1.072-2.05v-1.88H47.44c.684 0 1.327-.266 1.812-.75a2.565 2.565 0 0 0-1.812-4.375h-2.521V9.924c0-2.878-2.34-5.22-5.215-5.22A5.224 5.224 0 0 0 34.5 9.582c-3.748.336-5.276 3.812-5.276 5.296-.006.445.161.863.473 1.18.312.316.727.49 1.171.49h8.454c.444 0 .86-.174 1.171-.49.312-.317.48-.736.474-1.172 0-1.487-1.521-4.95-5.248-5.3a4.006 4.006 0 0 1 3.984-3.664c2.205 0 4 1.796 4 4.003v16.663H26.464V1.217h22.927a.608.608 0 1 0 0-1.217H.608a.608.608 0 0 0 0 1.217z" fill="#EB5976" fill-rule="evenodd"/>
    <path clip-rule="evenodd" d="M13.983 30.509c.234 0 .423-.277.423-.618V5.702c0-.341-.19-.617-.423-.617-.234 0-.423.276-.423.617v24.19c0 .34.19.617.423.617zM19.915 30.509c.235 0 .424-.276.424-.618V5.702c0-.341-.19-.617-.424-.617-.233 0-.423.276-.423.617v24.19c0 .34.19.617.423.617z" fill="#EB5976" fill-rule="evenodd"/>
</svg>