<svg xmlns="http://www.w3.org/2000/svg" version="1.0" width="512.000000pt" height="512.000000pt" viewBox="0 0 512.000000 512.000000" preserveAspectRatio="xMidYMid meet">

<g transform="translate(0.000000,512.000000) scale(0.100000,-0.100000)" fill="#ff9900" stroke="none">
<path d="M25 5095 c-16 -15 -25 -36 -25 -55 0 -19 9 -40 25 -55 l24 -25 2511 0 2511 0 24 25 c33 32 33 78 0 110 l-24 25 -2511 0 -2511 0 -24 -25z" fill="#ff9900"/>
<path d="M25 4775 c-16 -15 -25 -36 -25 -55 0 -19 9 -40 25 -55 l24 -25 2511 0 2511 0 24 25 c33 32 33 78 0 110 l-24 25 -2511 0 -2511 0 -24 -25z" fill="#ff9900"/>
<path d="M2215 4473 c-161 -7 -447 -36 -540 -54 -97 -20 -180 -53 -219 -87 -27 -24 -56 -91 -56 -132 0 -41 29 -108 56 -132 39 -34 122 -67 219 -87 241 -48 849 -74 1245 -52 549 30 726 74 781 195 47 104 -3 210 -122 259 -172 71 -816 114 -1364 90z m944 -178 c251 -24 401 -59 401 -95 0 -37 -152 -72 -415 -97 -231 -21 -873 -24 -1115 -5 -278 23 -456 60 -468 99 -14 48 255 95 663 117 162 8 778 -4 934 -19z" fill="#ff9900"/>
<path d="M25 4255 c-30 -29 -33 -74 -7 -103 9 -11 273 -140 586 -286 l568 -266 1389 0 1388 0 568 265 c312 147 576 275 586 287 38 45 2 128 -57 128 -13 0 -274 -117 -579 -260 l-554 -260 -1352 0 -1351 0 -388 181 c-213 100 -463 217 -556 260 -92 44 -179 79 -192 79 -14 0 -36 -11 -49 -25z" fill="#ff9900"/>
<path d="M25 3895 c-30 -29 -33 -74 -7 -103 9 -12 242 -124 517 -251 l500 -230 0 -1198 0 -1198 -508 -391 c-280 -215 -513 -397 -518 -405 -29 -46 14 -119 69 -119 23 0 138 84 550 400 l520 400 1414 0 1413 -1 519 -399 c409 -315 525 -400 548 -400 58 0 100 77 66 123 -7 9 -240 191 -518 405 l-505 388 0 1198 0 1197 500 230 c275 127 508 239 518 251 38 45 2 128 -57 128 -13 0 -258 -108 -544 -240 l-521 -240 -1421 0 -1421 0 -521 240 c-286 132 -531 240 -544 240 -14 0 -36 -11 -49 -25z m3895 -1775 l0 -1160 -1360 0 -1360 0 0 1160 0 1160 1360 0 1360 0 0 -1160z" fill="#ff9900"/>
<path d="M1545 2935 l-25 -24 0 -791 0 -791 25 -24 24 -25 991 0 991 0 24 25 25 24 0 791 0 791 -25 24 -24 25 -991 0 -991 0 -24 -25z m295 -470 l0 -336 25 -24 c15 -16 36 -25 55 -25 19 0 40 9 55 25 l25 24 0 336 0 335 80 0 80 0 0 -575 0 -576 25 -24 c15 -16 36 -25 55 -25 19 0 40 9 55 25 l25 24 0 576 0 575 240 0 240 0 0 -575 0 -576 25 -24 c32 -33 78 -33 110 0 l25 24 0 576 0 575 80 0 80 0 0 -335 0 -336 25 -24 c32 -33 78 -33 110 0 l25 24 0 336 0 335 80 0 80 0 0 -680 0 -680 -880 0 -880 0 0 680 0 680 80 0 80 0 0 -335z" fill="#ff9900"/>
</g>
</svg>