<?xml version="1.0" encoding="utf-8"?>
<svg xmlns="http://www.w3.org/2000/svg" fill="none" height="50" viewBox="0 0 50 50" width="50">
    <path d="M47.7.001H2.3C1.183-.04-.02 1.017 0 2.301v16.15a.732.732 0 1 0 1.465 0V2.356l22.802 20.119v18.827a.732.732 0 1 0 1.465 0V22.877h22.802V47.7c0 .46-.374.835-.835.835H25.732v-3.762a.732.732 0 1 0-1.465 0v3.762H2.3a.836.836 0 0 1-.835-.835V22.144a.732.732 0 1 0-1.465 0V47.7C0 48.968 1.032 50 2.3 50h45.4c1.267 0 2.3-1.032 2.3-2.3V2.3C50 1.034 48.967.002 47.7.002zm.834 2.3v17.426l-5.597-8.39a.732.732 0 1 0-1.219.814l1.465 2.194H35.71l-4.656-5.66h8.351l.416.624a.732.732 0 0 0 1.218-.813l-4.69-7.03H47.7c.46 0 .834.374.834.835zM33.397 21.41l-5.478-5.6h7.1l4.608 5.6h-6.23zm-6.911-7.066-5.535-5.66h8.207l4.656 5.66h-7.328zm-15.633-5.66H18.9l5.536 5.66h-7.17l-6.414-5.66zm12.366-7.219 4.734 5.755h-8.435l-5.629-5.755h9.33zm15.21 5.755h-8.58l-4.733-5.755h9.473l3.84 5.755zM11.84 1.466l5.629 5.755H9.193L2.67 1.466h9.17zm13.437 19.946-6.35-5.602h6.942l5.479 5.602h-6.071zm16.247 0-4.608-5.602h7.244l3.738 5.602h-6.374z" fill="#EB5976"/>
</svg>