<?xml version="1.0" encoding="utf-8"?>
<svg xmlns="http://www.w3.org/2000/svg" fill="none" height="50" viewBox="0 0 50 50" width="50">
    <path d="M46.063 20.276a2.164 2.164 0 0 0-2.165-2.166 2.164 2.164 0 0 0-2.166 2.166c0 .984.67 1.81 1.575 2.07v1.363a2.163 2.163 0 0 0-1.575 2.07v1.772H4.331v-1.763c0-.985-.67-1.811-1.575-2.071v-1.363a2.163 2.163 0 0 0 1.575-2.07 2.164 2.164 0 0 0-2.166-2.166C.97 18.118 0 19.078 0 20.276c0 .984.67 1.81 1.575 2.07v1.363A2.163 2.163 0 0 0 0 25.779v23.623c0 .322.268.59.59.59h3.15c.323 0 .59-.267.59-.59v-.985h37.402v.993c0 .322.268.59.59.59h3.15c.323 0 .591-.268.591-.59V25.788c0-.985-.67-1.811-1.575-2.071v-1.363c.906-.267 1.575-1.094 1.575-2.078zm-3.15 0a.985.985 0 1 1 1.97 0 .985.985 0 0 1-1.97 0zM31.89 42.52V31.89h4.33v10.63h-4.33zm-5.512 0V31.89h4.33v10.63h-4.33zm-5.512 0V31.89h4.33v10.63h-4.33zm-5.512 0V31.89h4.331v10.63h-4.33zm-5.511 0V31.89h4.33v10.63h-4.33zm-5.512 0V31.89h4.33v10.63h-4.33zM37.4 31.89h4.331v10.63h-4.33V31.89zm4.331-3.15v1.969H4.331V28.74h37.401zm-40.55-8.464a.985.985 0 1 1 1.968 0 .985.985 0 0 1-1.969 0zM3.15 48.819H1.18V25.787a.985.985 0 0 1 1.969 0V48.82zm1.18-1.575v-3.543h37.402v3.543H4.331zm40.552-21.456v23.031h-1.969V25.787a.985.985 0 0 1 1.969 0z" fill="#EB5976"/>
    <path d="M39.173 1.575c-5.968 0-10.827 4.858-10.827 10.827v.228a6.11 6.11 0 0 0-5.488 5.567 2.161 2.161 0 0 0-1.598 2.079 2.164 2.164 0 1 0 4.33 0c0-.977-.653-1.796-1.55-2.064a4.93 4.93 0 0 1 4.306-4.393v2.81a2.164 2.164 0 0 0-1.574 2.072c0 1.197.968 2.165 2.165 2.165a2.164 2.164 0 0 0 2.165-2.165c0-.985-.669-1.811-1.575-2.071v-2.811a4.93 4.93 0 0 1 4.308 4.393 2.166 2.166 0 0 0-1.552 2.064c0 1.196.969 2.165 2.166 2.165a2.164 2.164 0 0 0 2.165-2.165c0-1-.685-1.835-1.598-2.08a6.118 6.118 0 0 0-5.488-5.566V12.4c0-5.314 4.33-9.645 9.645-9.645 5.315 0 9.646 4.33 9.646 9.646v37.007c0 .323.267.59.59.59.323 0 .59-.267.59-.59V12.401c0-5.968-4.857-10.826-10.826-10.826zm-14.764 18.7a.985.985 0 1 1-1.969 0 .985.985 0 0 1 1.97 0zm11.024 0a.985.985 0 1 1-1.97 0 .985.985 0 0 1 1.97 0zm-5.512-1.574a.985.985 0 1 1-1.969-.001.985.985 0 0 1 1.97 0zM3.74 15.354h15.748c.323 0 .59-.267.59-.59V.59a.595.595 0 0 0-.59-.591H3.74a.595.595 0 0 0-.59.59v14.174c0 .323.267.59.59.59zm15.158-1.18h-6.693V1.18h6.693v12.992zM4.33 1.18h6.693v12.992H4.33V1.181z" fill="#EB5976"/>
    <path d="M7.26 2.535 5.685 4.11a.594.594 0 0 0 0 .835.584.584 0 0 0 .418.173c.15 0 .299-.055.417-.173L8.095 3.37a.594.594 0 0 0 0-.835.594.594 0 0 0-.835 0zM13.976 5.118c.15 0 .3-.055.418-.173l1.575-1.575a.594.594 0 0 0 0-.835.594.594 0 0 0-.835 0L13.559 4.11a.594.594 0 0 0 0 .835.584.584 0 0 0 .417.173z" fill="#EB5976"/>
</svg>