<?xml version="1.0" encoding="utf-8"?>
<svg xmlns="http://www.w3.org/2000/svg" fill="none" height="50" viewBox="0 0 50 50" width="50">
    <path d="M.848 50h47.469c.468 0 .848-.38.848-.847v-23.73a.848.848 0 0 0-.848-.847H25.43V1.695a.848.848 0 0 0-.848-.848H.848A.848.848 0 0 0 0 1.695v47.458c0 .468.38.847.848.847zm22.887-15.297A9.332 9.332 0 0 1 15.3 26.27h8.434v8.432zm0 1.706v2.548a13.58 13.58 0 0 1-12.69-12.686h2.55a11.036 11.036 0 0 0 10.14 10.138zM25.43 26.27h8.433a9.331 9.331 0 0 1-8.433 8.432V26.27zm-10.129-1.695a9.332 9.332 0 0 1 8.434-8.431v8.431H15.3zm8.434-10.137a11.036 11.036 0 0 0-10.14 10.137h-2.55a13.58 13.58 0 0 1 12.69-12.686v2.549zM9.368 26.27c.438 7.744 6.62 13.926 14.367 14.364v7.67H13.519a12.713 12.713 0 0 0-11.824-11.82V26.27h7.673zM1.695 41.576a7.64 7.64 0 0 1 6.732 6.73H1.695v-6.73zm8.439 6.73a9.338 9.338 0 0 0-8.439-8.437v-1.701a11.036 11.036 0 0 1 10.14 10.137h-1.701zm27.196 0a11.036 11.036 0 0 1 10.14-10.138v1.7a9.338 9.338 0 0 0-8.44 8.437h-1.7zm3.408 0a7.64 7.64 0 0 1 6.731-6.73v6.73h-6.731zm6.731-11.822a12.713 12.713 0 0 0-11.824 11.821H25.43v-7.67c7.746-.438 13.929-6.62 14.367-14.364h7.672v10.213zm-9.35-10.213A13.58 13.58 0 0 1 25.43 38.957v-2.548A11.036 11.036 0 0 0 35.57 26.27h2.549zM23.735 10.212c-7.746.439-13.93 6.62-14.367 14.364H1.695V14.363A12.713 12.713 0 0 0 13.52 2.543h10.216v7.67zm-11.9-7.67A11.036 11.036 0 0 1 1.695 12.68v-1.7a9.338 9.338 0 0 0 8.439-8.437h1.701zm-3.408 0a7.64 7.64 0 0 1-6.732 6.73v-6.73h6.732z" fill="#EB5976"/>
    <path d="m27.634 14.776.769 1.537c.091.184.193.365.3.543l-1.539 4.923a.847.847 0 0 0 1.063 1.064l4.839-1.513 2.882 1.73c.73.437 1.566.669 2.417.669h2.733a4.702 4.702 0 0 0 4.367-6.447l-.473-1.18a9.258 9.258 0 0 0-.17-7.196l4.93-4.93a.848.848 0 0 0 0-1.198L47.221.248a.848.848 0 0 0-1.199 0L41.34 4.929a9.22 9.22 0 0 0-3.376-1.299l-.694-.116a9.206 9.206 0 0 0-1.51-.125h-1.121a7.873 7.873 0 0 0-7.005 11.387zm4.118-1.992a4.387 4.387 0 0 1 4.605-3.044 4.332 4.332 0 0 1 1.988.726l-1.647 1.646 1.199 1.199 1.647-1.647c.402.593.652 1.276.725 1.988.2 2.06-1.07 3.98-3.044 4.603l-7.961 2.487 2.488-7.958zm11.662 2.696-.123.307a.859.859 0 0 0 0 .63l.599 1.495a3.004 3.004 0 0 1-2.792 4.122h-2.733c-.544 0-1.079-.145-1.547-.424l-1.586-.952 2.498-.781a6.083 6.083 0 0 0 4.23-6.394 6.015 6.015 0 0 0-1.2-3.03l.779-.78.66.659c.33.33.867.33 1.198 0l.12-.119a7.54 7.54 0 0 1-.103 5.267zm3.208-13.435 1.331 1.332-5.159 5.157-1.331-1.33 5.159-5.159zM29.922 7.3a6.128 6.128 0 0 1 4.717-2.216h1.12c.413.001.825.035 1.232.102l.694.116a7.547 7.547 0 0 1 2.428.853l-.448.449a.848.848 0 0 0 0 1.198l.672.672-.78.78a6.037 6.037 0 0 0-9.423 3.024l-.712 2.282-.272-.542c-.25-.501-.43-1.034-.538-1.584a6.118 6.118 0 0 1 1.31-5.139V7.3z" fill="#EB5976"/>
</svg>