<?xml version="1.0" encoding="utf-8"?>
<svg xmlns="http://www.w3.org/2000/svg" fill="none" height="50" viewBox="0 0 50 50" width="50">
    <path clip-rule="evenodd" d="M10.641 13.063c.283 0 .528.196.591.472l2.414 10.497a.61.61 0 0 1-.592.744H7.438v24.009h7.165v-3.73h-2.85a.608.608 0 0 1-.607-.608V32.178c0-.336.271-.608.607-.608h4.296v-2.53a4.2 4.2 0 0 1 4.193-4.196h6.746c1.518 0 2.849.811 3.585 2.023a4.194 4.194 0 0 1 3.586-2.023h6.745a4.2 4.2 0 0 1 4.193 4.197v2.53h4.296c.335 0 .607.271.607.607v12.27a.607.607 0 0 1-.607.607h-2.85v3.73h2.804a.607.607 0 1 1 0 1.215H.607a.608.608 0 0 1 0-1.215h5.616V24.776H.607a.606.606 0 0 1-.591-.744l2.413-10.497a.607.607 0 0 1 .591-.472h7.621zm34.687 31.992h-29.51v3.73h29.51v-3.73zM16.05 32.785H12.36V43.84h36.426V32.786h-3.69v6.753a.608.608 0 0 1-.606.608H16.656a.607.607 0 0 1-.607-.608v-6.753zm10.939 2.685h-6.746a2.983 2.983 0 0 0-2.979 2.982v.48h12.703v-.48a2.983 2.983 0 0 0-2.978-2.982zm13.916 0h-6.745a2.983 2.983 0 0 0-2.979 2.982v.48h12.702v-.48a2.983 2.983 0 0 0-2.978-2.982zm-13.916-9.41h-6.746a2.983 2.983 0 0 0-2.979 2.98v6.46l.008-.007c.024-.024.049-.046.072-.07l.074-.07c.024-.023.05-.043.074-.065l.079-.068.077-.06.081-.066.08-.056c.028-.02.056-.042.085-.06.027-.02.054-.036.08-.053.03-.02.06-.04.091-.058l.081-.048.095-.054.084-.044.096-.05.088-.04c.033-.014.065-.03.099-.044.03-.013.06-.024.09-.035.033-.014.067-.028.1-.04l.095-.032c.033-.012.066-.025.101-.035l.096-.028.104-.03.1-.022.102-.024c.036-.008.072-.013.108-.02l.099-.018c.04-.006.08-.01.12-.014.03-.005.06-.01.09-.013l.134-.01.08-.006a4.4 4.4 0 0 1 .216-.005h6.746c.072 0 .144.002.216.005l.08.006.133.01.092.013c.04.004.079.008.118.014l.1.019.107.019.105.024.098.023.105.03.095.027.104.035.09.03.104.043c.03.01.058.022.088.034l.101.046.084.038.1.052.081.042.097.056.08.046.092.059.078.05.089.064.075.054.085.066.074.06.08.069c.024.021.05.042.073.064.026.023.05.048.075.072l.071.068.008.008v-6.46a2.983 2.983 0 0 0-2.978-2.982zm13.916 0h-6.745a2.983 2.983 0 0 0-2.979 2.98v6.46a4.177 4.177 0 0 1 2.98-1.245h6.744c1.164 0 2.218.476 2.978 1.246v-6.46a2.983 2.983 0 0 0-2.978-2.982zM10.158 14.278H3.504L1.37 23.56h10.922l-2.134-9.282zM44.49 0c.335 0 .607.272.607.608v19.741a.608.608 0 0 1-.607.608H16.656a.608.608 0 0 1-.607-.608V.608c0-.336.273-.608.607-.608H44.49zm-.608 1.215H17.263v13.162L22.51 8.4a.607.607 0 0 1 .913 0l6.61 7.533 3.257-3.71a.606.606 0 0 1 .913 0L40.8 19.74h3.081V1.215zM33.745 13.544l-2.905 3.309 2.536 2.888h5.809l-5.44-6.197zm-10.78-3.822-5.702 6.496v3.523H31.76l-8.793-10.02zm15.13-5.884a3.172 3.172 0 0 1 3.167 3.17c0 1.75-1.42 3.171-3.168 3.171a3.173 3.173 0 0 1-3.168-3.17 3.173 3.173 0 0 1 3.168-3.17zm0 1.216a1.957 1.957 0 0 0-1.955 1.955c0 1.078.877 1.955 1.954 1.955a1.956 1.956 0 0 0 0-3.91z" fill="#EB5976" fill-rule="evenodd"/>
</svg>