<?xml version="1.0" encoding="utf-8"?>
<svg xmlns="http://www.w3.org/2000/svg" fill="none" height="50" viewBox="0 0 50 50" width="50">
    <path clip-rule="evenodd" d="M38.492 25.239c.658-.159 1.402-.339 2.5-.207a.606.606 0 0 1 .492.827c-.741 1.884-1.129 2.905-1.129 3.71v2.933h4.663c.224 0 .43.123.535.32l3.134 5.834A11.05 11.05 0 0 1 50 43.871v5.52a.608.608 0 0 1-.608.609H.608A.608.608 0 0 1 0 49.392V43.87c0-1.814.453-3.618 1.312-5.215l3.134-5.834a.608.608 0 0 1 .536-.32h4.662v-2.933c0-.805-.388-1.826-1.129-3.71a.607.607 0 0 1 .492-.827c1.099-.132 1.843.048 2.5.207.723.175 1.295.314 2.288.047a8.035 8.035 0 0 1 2.105-.258 8.03 8.03 0 0 1 2.104.258c.994.267 1.566.128 2.29-.047.656-.159 1.4-.339 2.498-.207a.606.606 0 0 1 .493.827c-.742 1.884-1.13 2.905-1.13 3.71v2.933h5.688v-2.933c0-.805-.387-1.826-1.13-3.71a.61.61 0 0 1 .494-.827c1.098-.132 1.842.048 2.498.207.725.175 1.296.314 2.29.047a8.03 8.03 0 0 1 2.104-.258 8.03 8.03 0 0 1 2.105.258c.994.267 1.565.128 2.288-.047zm6.163 8.479H5.345l-2.963 5.514a9.835 9.835 0 0 0-1.167 4.639v4.912h47.57v-4.912a9.826 9.826 0 0 0-1.168-4.639l-2.962-5.514zm-.74 6.924a.609.609 0 0 1 0 1.217H6.086a.608.608 0 1 1 0-1.217h37.83zM21.844 26.209c-.471.022-.86.115-1.264.214-.785.19-1.596.385-2.889.04a6.839 6.839 0 0 0-1.79-.218c-.66 0-1.246.072-1.79.218-1.293.345-2.104.149-2.889-.04-.403-.099-.793-.192-1.265-.214.595 1.537.903 2.478.903 3.36v2.933H20.94V29.57c0-.883.31-1.824.903-3.361zm18.2 0c-.471.022-.861.115-1.265.214-.785.189-1.596.385-2.89.04a6.832 6.832 0 0 0-1.789-.218c-.66 0-1.245.072-1.79.218-1.292.345-2.104.149-2.89-.04-.403-.099-.792-.192-1.263-.214.594 1.537.903 2.478.903 3.36v2.933H39.14V29.57c0-.883.308-1.824.903-3.361zm-.444-6.344c1.61 0 3.123.627 4.261 1.766a5.992 5.992 0 0 1 1.766 4.266v3.162a.608.608 0 1 1-1.215 0v-3.162c0-1.287-.501-2.496-1.41-3.405a4.775 4.775 0 0 0-3.402-1.41H10.4a4.819 4.819 0 0 0-4.81 4.815v3.162a.607.607 0 1 1-1.216 0v-3.162c0-3.326 2.703-6.032 6.027-6.032h29.2zM37.363 0c.336 0 .608.273.608.608v13.724a.608.608 0 0 1-.608.608H12.636a.608.608 0 0 1-.607-.608V.608c0-.335.271-.608.607-.608h24.727zM17.962 5.505l-4.718 5.376v2.843h11.931l-7.213-8.22zm7.378-4.288H13.244v7.82l4.261-4.856a.61.61 0 0 1 .913 0l5.51 6.278 2.678-3.05a.603.603 0 0 1 .913 0l5.543 6.315h3.693V1.217h-2.34a4.585 4.585 0 0 1-4.538 3.974 4.586 4.586 0 0 1-4.537-3.974zm1.722 7.514-2.325 2.65 2.056 2.343h4.65L27.063 8.73zm6.123-7.514h-6.614a3.368 3.368 0 0 0 3.306 2.757 3.37 3.37 0 0 0 3.308-2.757z" fill="#EB5976" fill-rule="evenodd"/>
</svg>