<?xml version="1.0" encoding="utf-8"?>
<svg xmlns="http://www.w3.org/2000/svg" fill="none" height="50" viewBox="0 0 50 50" width="50">
    <path clip-rule="evenodd" d="M49.392 25.635c.335 0 .608.272.608.608v23.15a.608.608 0 0 1-.608.607H.608A.607.607 0 0 1 0 49.392v-23.15c0-.335.272-.607.608-.607h48.784zM13.143 41.848H1.215v6.937h11.928v-6.936zM35.641 26.85H14.36v21.935H35.64V26.85zm13.143 7.5H36.856v14.435h11.928V34.349zm-15.966.553c.335 0 .608.272.608.608v10.461a.608.608 0 0 1-.608.608H17.182a.608.608 0 0 1-.608-.608V35.511c0-.336.273-.608.608-.608h15.636zm-.608 1.215H17.79v9.247h14.42v-9.247zM13.143 34.35H1.215v6.284h11.928v-6.284zm0-7.499H1.215v6.284h11.928V26.85zm35.641 0H36.856v6.284h11.928V26.85zm-30.392 2.21a1.82 1.82 0 0 1 1.817 1.817 1.82 1.82 0 0 1-1.817 1.817 1.82 1.82 0 0 1-1.818-1.817 1.82 1.82 0 0 1 1.818-1.818zm4.405 0a1.82 1.82 0 0 1 1.817 1.817 1.82 1.82 0 0 1-1.817 1.817 1.82 1.82 0 0 1-1.817-1.817 1.82 1.82 0 0 1 1.817-1.818zm4.405 0a1.82 1.82 0 0 1 1.817 1.817 1.82 1.82 0 0 1-1.817 1.817 1.82 1.82 0 0 1-1.817-1.817 1.82 1.82 0 0 1 1.817-1.818zm4.406 0a1.82 1.82 0 0 1 1.817 1.817 1.82 1.82 0 0 1-1.817 1.817 1.82 1.82 0 0 1-1.818-1.817 1.82 1.82 0 0 1 1.818-1.818zm-13.216 1.215a.603.603 0 1 0 0 1.205.603.603 0 0 0 0-1.205zm4.405 0a.603.603 0 1 0 .002 1.205.603.603 0 0 0-.002-1.205zm4.405 0a.603.603 0 1 0 .002 1.205.603.603 0 0 0-.002-1.205zm4.406 0a.603.603 0 1 0 0 1.205.603.603 0 0 0 0-1.205zM30.145 0c.336 0 .607.272.607.608v7.27l5.954 6.803a.609.609 0 0 1-.457 1.008H13.75a.609.609 0 0 1-.458-1.008l5.954-6.803V.608c0-.336.272-.608.608-.608h10.29zm-.276 8.715H20.13l-5.04 5.758h19.82l-5.04-5.758zM13.751 0c.335 0 .608.272.608.608v7.499a.608.608 0 0 1-.608.608H.608A.607.607 0 0 1 0 8.107v-7.5C0 .273.272 0 .608 0H13.75zm35.641 0c.336 0 .608.272.608.608v7.499a.607.607 0 0 1-.608.608H36.249a.607.607 0 0 1-.608-.608v-7.5c0-.335.272-.607.608-.607h13.143zM29.537 1.215h-9.074V7.5h9.074V1.215zm-16.394 0H1.215V7.5h11.928V1.215zm35.641 0H36.856V7.5h11.928V1.215z" fill="#EB5976" fill-rule="evenodd"/>
</svg>