<?xml version="1.0" encoding="utf-8"?>
<svg xmlns="http://www.w3.org/2000/svg" fill="none" height="50" viewBox="0 0 50 50" width="50">
    <path clip-rule="evenodd" d="M7.146 20.801h35.707V1.233H7.146V20.8zm-.607 1.233h36.922a.612.612 0 0 0 .607-.616V.616A.612.612 0 0 0 43.46 0H6.539a.612.612 0 0 0-.607.616v20.801c0 .34.272.617.607.617z" fill="#EB5976" fill-rule="evenodd"/>
    <path clip-rule="evenodd" d="M18.457 3.577a.639.639 0 0 0-.902 0l-7.199 7.198a.639.639 0 0 0 .902.903l7.2-7.2a.639.639 0 0 0 0-.901zM25.243 3.571a.62.62 0 0 0-.876 0L11.198 16.74a.62.62 0 0 0 .876.876L25.243 4.447a.62.62 0 0 0 0-.876zM39.59 9.51l-7.2 7.197a.637.637 0 1 0 .903.903l7.198-7.198a.637.637 0 1 0-.902-.903zM39.648 3.572a.622.622 0 0 0-.879 0L25.606 16.735a.62.62 0 1 0 .88.88L39.648 4.45a.62.62 0 0 0 0-.88zM33.74 37.624h15.045v-5.063H33.739v5.063zm0 6.267h15.045V38.83H33.739v5.062zm-1.216-5.664v5.665H17.477v-11.33h15.047v5.665zm-31.309-.603h15.047v-5.063H1.215v5.063zm0 6.267h15.047V38.83H1.215v5.062zm48.177-12.535H.608A.605.605 0 0 0 0 31.96v12.535c0 .333.273.603.608.603H3.46v4.3c0 .334.271.603.607.603.335 0 .608-.27.608-.602v-4.301h40.649v4.3c0 .334.272.603.608.603.336 0 .607-.27.607-.602v-4.301h2.852c.336 0 .608-.27.608-.603V31.96a.605.605 0 0 0-.608-.603zM20.314 24.669c-.285-.185-.655-.083-.825.227l-1.608 2.929a.703.703 0 0 0-.006.658c.108.205.308.33.525.33h13.2a.597.597 0 0 0 .525-.33.706.706 0 0 0-.006-.658l-1.607-2.93c-.17-.31-.541-.411-.827-.226-.286.185-.38.586-.21.896l1.065 1.94H19.46l1.065-1.94c.17-.31.076-.711-.21-.896z" fill="#EB5976" fill-rule="evenodd"/>
</svg>