<?xml version="1.0" encoding="utf-8"?>
<svg xmlns="http://www.w3.org/2000/svg" fill="none" height="50" viewBox="0 0 50 50" width="50">
    <path clip-rule="evenodd" d="M48.785 6.593h-3.628V3.904a.608.608 0 1 0-1.216 0v2.689h-8.209V3.904a.607.607 0 1 0-1.215 0v2.689h-8.209V3.904a.607.607 0 1 0-1.215 0v2.689h-7.617V1.215h31.309v5.378zM17.476 42.192h15.047v-5.378H17.476v5.378zm0 6.593h15.047v-5.378H17.476v5.378zm16.262 0h15.047v-5.378H33.738v5.378zm0-6.593h15.047v-5.378H33.738v5.378zM16.261 7.2v41.584H1.215V1.215h15.046v5.986zM49.392 0H.608A.607.607 0 0 0 0 .608v48.784c0 .336.272.608.608.608h48.784a.608.608 0 0 0 .608-.608V36.206a.608.608 0 0 0-.608-.607H17.476V7.809h7.617v1.768a1.238 1.238 0 0 1-1.215 1.023c-.51 0-.974-.321-1.154-.8a.608.608 0 0 0-1.138.427 2.458 2.458 0 0 0 2.292 1.588 2.458 2.458 0 0 0 2.424-2.107.543.543 0 0 0 .006-.085V7.808h8.209v1.769a1.238 1.238 0 0 1-1.215 1.023c-.51 0-.974-.321-1.153-.8a.608.608 0 0 0-1.139.427 2.459 2.459 0 0 0 2.292 1.588 2.458 2.458 0 0 0 2.424-2.107.556.556 0 0 0 .006-.085V7.808h8.209v1.769a1.238 1.238 0 0 1-1.215 1.023c-.51 0-.974-.321-1.153-.8a.607.607 0 1 0-1.139.427 2.459 2.459 0 0 0 2.293 1.588 2.46 2.46 0 0 0 2.424-2.107.681.681 0 0 0 .005-.085V7.808h4.236A.608.608 0 0 0 50 7.201V.608A.608.608 0 0 0 49.392 0z" fill="#EB5976" fill-rule="evenodd"/>
    <path clip-rule="evenodd" d="M11.44 31.356c.235 0 .425-.282.425-.63v-12.3c0-.348-.19-.63-.424-.63-.234 0-.424.282-.424.63v12.3c0 .348.19.63.424.63z" fill="#EB5976" fill-rule="evenodd"/>
</svg>