<svg xmlns="http://www.w3.org/2000/svg" version="1.0" width="512.000000pt" height="512.000000pt" viewBox="0 0 512.000000 512.000000" preserveAspectRatio="xMidYMid meet">

<g transform="translate(0.000000,512.000000) scale(0.100000,-0.100000)" fill="#ff9900" stroke="none">
<path d="M653 4605 c-179 -55 -253 -181 -312 -536 -37 -220 -52 -398 -58 -691 l-6 -287 -41 5 c-76 9 -135 -52 -107 -112 16 -37 69 -65 114 -62 20 2 37 1 37 -2 0 -3 -14 -32 -30 -64 -17 -33 -30 -74 -30 -95 0 -50 24 -134 50 -175 28 -47 110 -119 179 -160 l55 -32 13 -90 c33 -252 123 -546 238 -779 91 -186 175 -313 270 -407 107 -108 185 -220 185 -266 0 -11 -7 -25 -15 -32 -9 -7 -36 -40 -60 -72 -55 -73 -59 -112 -17 -158 43 -48 165 -80 309 -80 117 0 158 10 166 41 13 47 -49 67 -147 46 l-40 -9 37 41 c20 22 66 99 102 170 l64 130 43 5 c117 13 751 48 972 53 221 5 508 -3 872 -23 l111 -7 17 -56 c51 -166 139 -282 243 -321 109 -41 331 -37 360 7 13 19 12 24 -7 43 -20 20 -29 22 -79 16 l-56 -6 3 55 c4 52 0 62 -47 144 -80 138 -70 202 49 316 127 123 202 259 324 585 43 113 96 243 120 290 46 93 34 83 210 167 161 76 259 202 260 333 0 257 -323 430 -731 391 -154 -15 -287 -45 -588 -129 -425 -120 -630 -167 -860 -197 -150 -19 -199 -20 -192 -2 8 21 -14 52 -63 91 -50 40 -88 46 -113 18 -26 -29 -20 -52 22 -92 l40 -38 -52 -6 c-66 -9 -324 9 -442 29 -148 26 -232 51 -610 175 -470 155 -629 198 -797 215 l-67 7 14 29 c36 68 1 115 -83 112 l-45 -2 6 257 c6 258 10 311 47 587 32 232 49 325 72 377 23 53 82 112 135 135 74 30 195 -8 321 -101 l64 -47 -50 -53 c-56 -59 -89 -117 -108 -191 -19 -68 -17 -104 5 -141 29 -48 75 -64 183 -64 151 0 269 45 376 145 100 92 106 157 24 237 -62 62 -162 108 -239 112 -56 3 -63 6 -143 69 -181 143 -342 195 -477 152z m698 -361 c19 -9 51 -30 72 -47 l38 -30 -43 -44 c-66 -68 -167 -113 -266 -120 -44 -3 -91 -3 -105 1 -22 5 -24 9 -18 38 22 95 80 179 146 210 48 22 124 19 176 -8z m-691 -1359 c142 -23 290 -65 659 -186 351 -116 533 -167 691 -193 466 -78 944 -23 1670 189 392 115 536 141 737 133 101 -4 145 -11 208 -32 158 -51 255 -148 255 -256 0 -40 -46 -124 -90 -164 -56 -50 -130 -85 -332 -154 -313 -108 -639 -179 -998 -219 -194 -21 -721 -24 -915 -5 -435 44 -819 122 -1258 258 -285 88 -427 144 -720 283 -183 87 -252 161 -232 250 8 36 52 79 101 96 51 18 108 18 224 0z m151 -639 c701 -280 1409 -417 2164 -417 530 0 955 55 1293 167 73 24 135 44 137 44 3 0 -4 -18 -15 -41 -12 -22 -44 -106 -72 -187 -88 -255 -167 -418 -249 -514 l-39 -46 -42 15 c-63 22 -170 14 -233 -17 -49 -24 -147 -112 -176 -159 l-16 -25 -259 13 c-344 17 -880 16 -1184 -4 -135 -8 -295 -18 -357 -22 l-112 -6 -51 56 c-115 126 -350 192 -481 136 -48 -21 -50 -21 -70 -3 -40 36 -87 110 -157 244 -118 225 -198 450 -247 695 -25 121 -28 145 -22 145 2 0 87 -33 188 -74z m3113 -1065 c3 -4 -6 -37 -20 -72 -50 -126 -44 -179 32 -305 24 -39 44 -76 44 -82 0 -19 -56 -24 -93 -9 -59 25 -115 118 -161 268 -14 47 -26 90 -26 96 0 20 68 77 112 95 47 18 104 23 112 9z m-2527 -60 c39 -18 84 -46 99 -62 l27 -28 -64 -137 c-35 -75 -81 -156 -102 -180 -43 -49 -102 -74 -138 -58 -20 9 -19 12 26 64 52 61 75 105 75 147 0 38 -48 135 -104 211 -25 34 -46 67 -46 73 0 8 24 10 78 7 60 -3 94 -12 149 -37z" fill="#ff9900"/>
<path d="M881 2081 c-18 -18 -18 -23 -5 -92 29 -153 106 -340 194 -469 42 -62 71 -80 96 -59 38 31 37 47 -10 122 -83 134 -145 288 -167 416 -6 36 -18 74 -27 84 -20 22 -57 22 -81 -2z" fill="#ff9900"/>
<path d="M1630 3990 c-34 -34 -27 -49 68 -164 64 -78 82 -87 120 -60 39 27 28 61 -48 157 -76 94 -101 106 -140 67z" fill="#ff9900"/>
<path d="M1396 3864 c-35 -34 -2 -159 47 -182 38 -18 77 5 77 47 0 37 -26 110 -47 133 -20 22 -56 23 -77 2z" fill="#ff9900"/>
<path d="M1090 3785 c-15 -18 -8 -130 12 -192 11 -32 18 -38 44 -41 38 -4 64 19 64 55 0 53 -23 158 -38 176 -19 21 -65 22 -82 2z" fill="#ff9900"/>
<path d="M1907 3552 c-26 -28 -20 -51 26 -117 32 -45 50 -61 70 -63 68 -8 74 48 14 133 -47 66 -80 80 -110 47z" fill="#ff9900"/>
<path d="M1527 3432 c-24 -26 -22 -39 23 -135 42 -92 66 -111 109 -88 37 20 37 57 0 133 -18 38 -41 78 -52 88 -22 25 -59 26 -80 2z" fill="#ff9900"/>
<path d="M1187 3312 c-10 -10 -17 -32 -17 -48 0 -56 28 -175 45 -195 26 -27 71 -25 91 6 15 23 14 31 -6 122 -22 100 -42 133 -80 133 -9 0 -24 -8 -33 -18z" fill="#ff9900"/>
<path d="M2176 3054 c-30 -30 -19 -58 48 -122 82 -79 120 -83 140 -14 6 18 -4 34 -55 87 -66 69 -101 82 -133 49z" fill="#ff9900"/>
<path d="M1717 2922 c-9 -10 -17 -24 -17 -30 0 -7 20 -53 45 -102 43 -86 47 -90 78 -90 70 0 74 42 14 155 -37 71 -46 80 -73 83 -20 2 -36 -3 -47 -16z" fill="#ff9900"/>
</g>
</svg>