<svg xmlns="http://www.w3.org/2000/svg" version="1.0" width="512.000000pt" height="512.000000pt" viewBox="0 0 512.000000 512.000000" preserveAspectRatio="xMidYMid meet">

<g transform="translate(0.000000,512.000000) scale(0.100000,-0.100000)" fill="#ff9900" stroke="none">
<path d="M132 4988 c-17 -17 -17 -4839 0 -4856 17 -17 4839 -17 4856 0 17 17 17 4839 0 4856 -17 17 -4839 17 -4856 0z m178 -84 c0 -21 -73 -94 -94 -94 -13 0 -16 11 -16 55 l0 55 55 0 c44 0 55 -3 55 -16z m558 -117 l132 -132 -270 -270 -270 -270 -130 130 -130 130 2 175 3 174 33 10 c60 17 125 85 152 159 l10 27 167 0 168 0 133 -133z m292 28 c-58 -58 -105 -105 -105 -105 0 0 -47 47 -105 105 l-105 105 210 0 210 0 -105 -105z m610 0 c-58 -58 -105 -105 -105 -105 0 0 -47 47 -105 105 l-105 105 210 0 210 0 -105 -105z m564 65 c13 -45 101 -133 146 -146 l35 -10 3 -174 2 -175 -130 -130 -130 -130 -270 270 -270 270 133 133 132 132 170 -2 169 -3 10 -35z m376 24 c0 -9 -17 -33 -38 -54 -66 -66 -158 -66 -224 0 -66 66 -60 70 112 70 132 0 150 -2 150 -16z m558 -117 l132 -132 -270 -270 -270 -270 -130 130 -130 130 2 174 3 174 40 14 c62 21 118 81 145 156 l10 27 167 0 168 0 133 -133z m292 28 c-58 -58 -105 -105 -105 -105 0 0 -47 47 -105 105 l-105 105 210 0 210 0 -105 -105z m610 0 c-58 -58 -105 -105 -105 -105 0 0 -47 47 -105 105 l-105 105 210 0 210 0 -105 -105z m564 65 c13 -45 101 -133 146 -146 l35 -10 3 -169 3 -169 -133 -133 -133 -133 -267 267 -268 268 133 133 132 132 170 -2 169 -3 10 -35z m186 -15 c0 -68 -16 -72 -71 -16 -56 55 -52 71 16 71 l55 0 0 -55z m-1037 -337 l-123 -123 -120 120 c-66 66 -120 124 -120 130 0 5 53 63 117 127 l118 118 125 -125 125 -125 -122 -122z m-2396 250 c62 -62 113 -117 113 -123 0 -6 -54 -64 -120 -130 l-120 -120 -122 123 -123 122 120 120 c66 66 124 120 130 120 5 0 60 -51 122 -112z m-295 -315 l128 -128 0 -171 0 -172 -27 -7 c-68 -16 -163 -114 -163 -167 0 -17 -13 -18 -177 -18 l-178 0 -127 127 -128 128 267 267 c148 148 270 268 273 268 3 0 62 -57 132 -127z m748 -138 l265 -265 -130 -130 -130 -130 -174 2 -174 3 -12 34 c-22 66 -117 151 -170 151 -13 0 -15 24 -15 172 l0 173 127 127 c70 71 132 128 138 128 6 0 129 -119 275 -265z m1652 138 l128 -128 0 -170 0 -170 -49 -18 c-57 -20 -122 -87 -137 -139 l-10 -33 -174 -3 -175 -2 -130 130 -130 130 265 265 c146 146 269 265 275 265 5 0 67 -57 137 -127z m738 -138 l265 -265 -130 -130 -130 -130 -171 0 -171 0 -12 41 c-16 53 -87 124 -140 140 l-41 12 0 171 0 171 127 127 c70 71 130 128 133 128 3 0 124 -119 270 -265z m-1645 -145 l120 -120 -123 -123 -122 -122 -122 122 -123 123 120 120 c66 66 122 120 125 120 3 0 59 -54 125 -120z m2235 -117 l0 -208 -105 105 -105 105 102 102 c57 57 104 103 105 103 2 0 3 -93 3 -207z m-4618 -105 l-102 -103 0 205 0 205 102 -103 103 -102 -103 -102z m290 -330 l-122 -123 -125 125 -125 125 122 122 123 123 125 -125 125 -125 -123 -122z m1793 252 l120 -120 -125 -125 -125 -125 -122 122 -123 123 122 122 c68 68 125 123 128 123 3 0 59 -54 125 -120z m603 -3 l122 -122 -123 -123 -122 -122 -125 125 -125 125 120 120 c66 66 122 120 125 120 3 0 60 -55 128 -123z m1789 1 l123 -123 -122 -122 c-68 -68 -127 -123 -133 -123 -6 0 -64 54 -130 120 l-120 120 125 125 c69 69 127 125 130 125 2 0 60 -55 127 -122z m-3336 16 c70 -36 99 -140 60 -211 -30 -52 -65 -75 -122 -81 -60 -6 -100 10 -139 54 -54 62 -50 153 11 213 50 51 123 60 190 25z m2419 -20 c68 -61 77 -150 23 -214 -35 -42 -74 -60 -130 -60 -152 0 -210 201 -83 288 25 17 47 22 91 22 54 0 63 -3 99 -36z m-2730 -181 c29 -79 79 -133 146 -159 l44 -17 0 -166 0 -166 -133 -133 -132 -132 -265 265 -265 265 135 135 135 135 163 0 162 0 10 -27z m930 -108 l135 -135 -265 -265 -265 -265 -132 132 -133 133 0 166 0 165 55 23 c62 26 106 72 131 138 l17 43 161 0 161 0 135 -135z m1479 80 c26 -63 85 -119 143 -137 l38 -11 0 -166 0 -166 -133 -133 -132 -132 -265 265 -265 265 135 135 135 135 161 0 160 0 23 -55z m913 -82 l138 -138 -262 -262 -263 -263 -132 132 -133 133 0 166 0 166 46 18 c56 21 119 83 135 133 6 20 14 40 16 45 2 4 75 7 161 7 l157 0 137 -137z m-1764 -6 l122 -122 -125 -125 -125 -125 -125 125 -125 125 122 122 c68 68 125 123 128 123 3 0 60 -55 128 -123z m-2381 -234 l-107 -108 0 215 0 215 107 -108 108 -107 -108 -107z m4613 100 l0 -218 -110 110 -110 110 107 107 c59 60 109 108 110 108 2 0 3 -98 3 -217z m-4182 -316 l262 -262 -133 -133 -133 -133 -169 3 -169 3 -10 35 c-13 45 -101 133 -146 146 l-35 10 -3 164 -3 164 133 133 c73 73 135 133 138 133 3 0 123 -118 268 -263z m1649 131 l133 -133 0 -167 c0 -145 -2 -168 -15 -168 -53 0 -148 -85 -170 -151 l-12 -34 -168 -3 -169 -3 -128 128 c-70 70 -128 132 -128 138 0 10 510 525 520 525 3 0 64 -60 137 -132z m745 -125 c142 -142 258 -262 258 -268 0 -6 -58 -68 -128 -138 l-128 -128 -169 3 -168 3 -12 34 c-22 66 -117 151 -170 151 -13 0 -15 23 -15 167 l0 168 132 132 c73 73 135 133 138 133 3 0 121 -116 262 -257z m1786 -178 l-3 -159 -35 -10 c-45 -13 -133 -101 -146 -146 l-10 -35 -169 -3 -169 -3 -133 133 -133 133 262 262 263 263 138 -138 137 -137 -2 -160z m-3430 32 l122 -122 -125 -125 -125 -125 -120 120 c-66 66 -120 124 -120 130 0 10 230 245 240 245 3 0 60 -55 128 -123z m2395 5 c64 -64 117 -122 117 -127 0 -6 -54 -64 -120 -130 l-120 -120 -125 125 -125 125 122 122 c68 68 125 123 128 123 3 0 58 -53 123 -118z m-2698 -312 l120 -120 -123 -122 -122 -123 -125 125 -125 125 117 117 c65 65 122 118 128 118 6 0 64 -54 130 -120z m610 0 l120 -120 -125 -125 -125 -125 -125 125 -125 125 120 120 c66 66 124 120 130 120 6 0 64 -54 130 -120z m1790 0 l120 -120 -120 -120 c-66 -66 -124 -120 -130 -120 -6 0 -64 54 -130 120 l-120 120 120 120 c66 66 124 120 130 120 6 0 64 -54 130 -120z m608 2 l117 -117 -125 -125 -125 -125 -122 123 -123 122 120 120 c66 66 124 120 130 120 6 0 63 -53 128 -118z m-1540 5 c91 -69 87 -191 -7 -261 -39 -29 -133 -29 -172 0 -52 39 -69 71 -69 133 0 47 5 64 27 93 55 72 152 88 221 35z m-2383 -15 c66 -66 66 -158 0 -224 -66 -66 -70 -60 -70 112 0 172 4 178 70 112z m4650 -112 c0 -172 -4 -178 -70 -112 -42 42 -57 89 -45 149 7 40 71 113 99 113 14 0 16 -18 16 -150z m-4052 -173 l132 -132 -268 -268 -267 -267 -133 133 -133 133 3 169 3 169 33 10 c60 17 125 85 152 159 l10 27 167 0 168 0 133 -133z m1469 88 c18 -52 86 -121 137 -138 l41 -14 3 -168 3 -169 -133 -133 -133 -133 -267 267 -268 268 133 133 132 132 169 -2 169 -3 14 -40z m931 -88 l132 -132 -268 -268 -267 -267 -133 133 -133 133 3 168 3 169 40 14 c62 21 118 81 145 156 l10 27 167 0 168 0 133 -133z m1466 93 c13 -45 101 -133 146 -146 l35 -10 3 -164 2 -165 -135 -135 -135 -135 -265 265 -265 265 133 133 132 132 170 -2 169 -3 10 -35z m-3246 -103 l122 -122 -123 -123 -122 -122 -125 125 -125 125 120 120 c66 66 122 120 125 120 3 0 60 -55 128 -123z m2397 3 l120 -120 -125 -125 -125 -125 -122 122 -123 123 122 122 c68 68 125 123 128 123 3 0 59 -54 125 -120z m-2567 -614 l-3 -169 -34 -12 c-66 -22 -151 -117 -151 -170 0 -13 -24 -15 -172 -15 l-173 0 -127 127 c-71 70 -128 132 -128 138 0 5 118 128 262 272 l263 263 133 -133 132 -132 -2 -169z m750 -233 l-133 -133 -166 0 -166 0 -17 44 c-10 25 -35 63 -57 84 -35 36 -56 48 -111 66 -16 5 -18 22 -18 173 l0 168 132 132 133 133 267 -267 268 -268 -132 -132z m1650 233 l-3 -168 -43 -17 c-23 -9 -60 -33 -81 -54 -35 -34 -47 -54 -65 -109 -5 -16 -22 -18 -173 -18 l-168 0 -132 132 -133 133 267 267 268 268 133 -133 132 -132 -2 -169z m742 -231 l-135 -135 -167 0 c-145 0 -168 2 -168 15 0 23 -29 76 -59 108 -28 31 -91 67 -116 67 -13 0 -15 24 -15 172 l0 173 132 132 133 133 265 -265 265 -265 -135 -135z m-1777 257 c64 -64 117 -122 117 -127 0 -6 -54 -64 -120 -130 l-120 -120 -120 120 c-66 66 -120 124 -120 130 0 10 230 245 240 245 3 0 58 -53 123 -118z m2237 -124 l0 -213 -107 107 -108 108 105 105 c58 58 106 105 107 105 2 0 3 -96 3 -212z m-4510 -3 c0 0 -47 -47 -105 -105 l-105 -105 0 210 0 210 105 -105 c58 -58 105 -105 105 -105z m4368 -178 l122 -122 -128 -128 -127 -127 -125 125 -125 125 125 125 c69 69 127 125 130 125 3 0 60 -55 128 -123z m-4183 -7 l120 -120 -120 -120 c-66 -66 -124 -120 -130 -120 -6 0 -64 54 -130 120 l-120 120 120 120 c66 66 124 120 130 120 6 0 64 -54 130 -120z m1790 0 l120 -120 -120 -120 c-66 -66 -124 -120 -130 -120 -6 0 -64 54 -130 120 l-120 120 120 120 c66 66 124 120 130 120 6 0 64 -54 130 -120z m610 0 l120 -120 -120 -120 c-66 -66 -124 -120 -130 -120 -6 0 -64 54 -130 120 l-120 120 120 120 c66 66 124 120 130 120 6 0 64 -54 130 -120z m-1547 13 c53 -39 74 -83 70 -141 -16 -191 -279 -203 -314 -14 -7 37 17 110 44 135 56 51 146 60 200 20z m2383 7 c103 -53 115 -196 21 -268 -47 -35 -135 -39 -179 -6 -89 66 -99 179 -21 251 49 46 116 55 179 23z m-2701 -195 c0 -23 29 -76 59 -108 28 -31 91 -67 116 -67 13 0 15 -24 15 -172 l0 -173 -127 -127 c-70 -71 -132 -128 -138 -128 -13 0 -525 512 -525 525 0 5 57 67 127 137 l128 128 172 0 c150 0 173 -2 173 -15z m938 -118 l132 -132 -265 -265 -265 -265 -135 135 -135 135 2 164 3 164 42 14 c23 8 60 32 81 54 36 35 48 56 66 112 5 15 22 17 173 17 l168 0 133 -133z m1466 89 c10 -25 35 -63 57 -84 35 -36 56 -48 112 -66 15 -5 17 -22 17 -168 l0 -163 -135 -135 -135 -135 -265 265 -265 265 132 132 133 133 166 0 166 0 17 -44z m924 -89 l132 -132 -265 -265 -265 -265 -130 130 -130 130 2 169 3 169 34 12 c66 22 151 117 151 170 0 13 23 15 168 15 l167 0 133 -133z m-1775 -5 c64 -64 117 -122 117 -127 0 -6 -54 -64 -120 -130 l-120 -120 -120 120 c-66 66 -120 124 -120 130 0 10 230 245 240 245 3 0 58 -53 123 -118z m-2273 -127 c0 0 -47 -47 -105 -105 l-105 -105 0 210 0 210 105 -105 c58 -58 105 -105 105 -105z m4510 -7 l0 -213 -107 107 -108 108 105 105 c58 58 106 105 107 105 2 0 3 -96 3 -212z m-4053 -716 l-132 -132 -170 2 -169 3 -10 35 c-13 45 -101 133 -146 146 l-35 10 -3 169 -3 169 133 133 133 133 267 -267 268 -268 -133 -133z m1651 233 l-3 -169 -35 -10 c-45 -13 -133 -101 -146 -146 l-10 -35 -164 -3 -165 -2 -135 135 -135 135 265 265 265 265 133 -133 132 -132 -2 -170z m742 -230 l-135 -135 -165 2 -164 3 -10 33 c-14 50 -89 128 -139 145 l-42 14 -3 168 -3 169 133 133 133 133 265 -265 265 -265 -135 -135z m1528 522 l133 -133 -3 -164 -3 -164 -35 -10 c-45 -13 -133 -101 -146 -146 l-10 -35 -169 -3 -169 -3 -133 133 -133 133 262 262 c145 145 265 263 268 263 3 0 65 -60 138 -133z m-3300 -270 l122 -122 -125 -125 -125 -125 -120 120 c-66 66 -120 124 -120 130 0 10 230 245 240 245 3 0 60 -55 128 -123z m2397 3 l120 -120 -125 -125 -125 -125 -122 122 -123 123 122 122 c68 68 125 123 128 123 3 0 59 -54 125 -120z m-2625 -387 c0 -2 -93 -3 -207 -3 l-208 0 105 105 105 105 102 -102 c57 -57 103 -104 103 -105z m610 0 c0 -2 -93 -3 -207 -3 l-208 0 105 105 105 105 102 -102 c57 -57 103 -104 103 -105z m1790 0 c0 -2 -93 -3 -207 -3 l-208 0 105 105 105 105 102 -102 c57 -57 103 -104 103 -105z m610 0 c0 -2 -93 -3 -207 -3 l-208 0 105 105 105 105 102 -102 c57 -57 103 -104 103 -105z m-1647 103 c36 -14 87 -69 87 -92 0 -11 -27 -14 -150 -14 -167 0 -172 2 -123 61 47 56 119 73 186 45z m-2352 -35 c56 -55 52 -71 -16 -71 l-55 0 0 55 c0 68 16 72 71 16z m4649 -16 l0 -55 -55 0 c-68 0 -72 16 -16 71 55 56 71 52 71 -16z" fill="#ff9900"/>
</g>
</svg>